# xmcd
#
# Track frame offsets:
#	150
#	16390
#	30385
#	50947
#	69032
#	87771
#	106286
#	122603
#	136614
#	157341
#	175460
#	194211
#
# Disc length: 2837 seconds
#
# Revision: 1
# Processed by: cddbd v1.5.1PL2 Copyright (c) Steve Scherf et al.
# Submitted via: audiograbber 1.83.01
#
DISCID=a20b130c
DTITLE=Various Artist - CB2086
DYEAR=1900
DGENRE=Karaoke
TTITLE0=George Jones - Vocal
TTITLE1=Warren Brothers, The - Vocal
TTITLE2=Shenandoah - Vocal
TTITLE3=Chris Ledoux - Vocal
TTITLE4=Matt King - Vocal
TTITLE5=Chad Brock - Vocal
TTITLE6=George Jones - Choices
TTITLE7=Warren Brothers, The - She Wants To Rock
TTITLE8=Shenandoah - Wooden Cross
TTITLE9=Chris Ledoux - Life Is A Highway
TTITLE10=Matt King - From Your Knees
TTITLE11=Chad Brock - Lightening Does The Work
EXTD=
EXTT0=
EXTT1=
EXTT2=
EXTT3=
EXTT4=
EXTT5=
EXTT6=
EXTT7=
EXTT8=
EXTT9=
EXTT10=
EXTT11=
PLAYORDER=
